<?xml version="1.0" encoding="UTF-8" standalone="no"?>
<svg width="0mm" height="0mm"
 xmlns:dunnart="http://www.dunnart.org/ns/dunnart"
 xmlns="http://www.w3.org/2000/svg" xmlns:xlink="http://www.w3.org/1999/xlink"  version="1.2" baseProfile="tiny">
<title>jog2.svg</title>
<desc>This SVG file was saved from Dunnart.  http://www.dunnart.org/</desc>
<defs>
</defs>
<g fill="none" stroke="black" stroke-width="1" fill-rule="evenodd" stroke-linecap="square" stroke-linejoin="bevel" >

<g fill="none" stroke="#000000" stroke-opacity="1" stroke-width="1" stroke-linecap="square" stroke-linejoin="bevel" transform="matrix(1,0,0,1,324,-161)"
font-family="Ubuntu" font-size="11" font-weight="400" font-style="normal" 
>
<path vector-effect="non-scaling-stroke" fill-rule="evenodd" d="M0,0 L-71.5,0 C-74,0 -76.5,-2.5 -76.5,-5 L-76.5,-8 C-76.5,-10.5 -79,-13 -81.5,-13 L-153,-13 L-81.5,-13 C-79,-13 -76.5,-10.5 -76.5,-8 L-76.5,-5 C-76.5,-2.5 -74,0 -71.5,0 L0,0"/>
</g>
</g>
<g fill="none" stroke="black" stroke-width="1" fill-rule="evenodd" stroke-linecap="square" stroke-linejoin="bevel" >

<g fill="none" stroke="#000000" stroke-opacity="1" stroke-width="1" stroke-linecap="square" stroke-linejoin="bevel" transform="matrix(1,0,0,1,334,8)"
font-family="Ubuntu" font-size="11" font-weight="400" font-style="normal" 
>
<path vector-effect="non-scaling-stroke" fill-rule="evenodd" d="M0,0 L0,-79.5 C0,-82 -2.5,-84.5 -5,-84.5 C-7.5,-84.5 -10,-87 -10,-89.5 L-10,-169 L-10,-89.5 C-10,-87 -7.5,-84.5 -5,-84.5 C-2.5,-84.5 0,-82 0,-79.5 L0,0"/>
</g>
</g>
<g fill="none" stroke="black" stroke-width="1" fill-rule="evenodd" stroke-linecap="square" stroke-linejoin="bevel" >

<g fill="none" stroke="#000000" stroke-opacity="1" stroke-width="1" stroke-linecap="square" stroke-linejoin="bevel" transform="matrix(1,0,0,1,180,22)"
font-family="Ubuntu" font-size="11" font-weight="400" font-style="normal" 
>
<path vector-effect="non-scaling-stroke" fill-rule="evenodd" d="M0,0 L72,0 C74.5,0 77,-2.5 77,-5 L77,-9 C77,-11.5 79.5,-14 82,-14 L154,-14 L82,-14 C79.5,-14 77,-11.5 77,-9 L77,-5 C77,-2.5 74.5,0 72,0 L0,0"/>
</g>
</g>
<g fill="none" stroke="black" stroke-width="1" fill-rule="evenodd" stroke-linecap="square" stroke-linejoin="bevel" >

<g fill="none" stroke="#000000" stroke-opacity="1" stroke-width="1" stroke-linecap="square" stroke-linejoin="bevel" transform="matrix(1,0,0,1,194,167)"
font-family="Ubuntu" font-size="11" font-weight="400" font-style="normal" 
>
<path vector-effect="non-scaling-stroke" fill-rule="evenodd" d="M0,0 L0,-67.5 C0,-70 -2.5,-72.5 -5,-72.5 L-9,-72.5 C-11.5,-72.5 -14,-75 -14,-77.5 L-14,-145 L-14,-77.5 C-14,-75 -11.5,-72.5 -9,-72.5 L-5,-72.5 C-2.5,-72.5 0,-70 0,-67.5 L0,0"/>
</g>
</g>
<g fill="none" stroke="black" stroke-width="1" fill-rule="evenodd" stroke-linecap="square" stroke-linejoin="bevel" >

<g fill="none" stroke="#000000" stroke-opacity="1" stroke-width="1" stroke-linecap="square" stroke-linejoin="bevel" transform="matrix(1,0,0,1,-46,182)"
font-family="Ubuntu" font-size="11" font-weight="400" font-style="normal" 
>
<path vector-effect="non-scaling-stroke" fill-rule="evenodd" d="M0,0 L115,0 C117.5,0 120,-2.5 120,-5 L120,-10 C120,-12.5 122.5,-15 125,-15 L240,-15 L125,-15 C122.5,-15 120,-12.5 120,-10 L120,-5 C120,-2.5 117.5,0 115,0 L0,0"/>
</g>
</g>
<g fill="none" stroke="black" stroke-width="1" fill-rule="evenodd" stroke-linecap="square" stroke-linejoin="bevel" >

<g fill="none" stroke="#000000" stroke-opacity="1" stroke-width="1" stroke-linecap="square" stroke-linejoin="bevel" transform="matrix(1,0,0,1,-61,22)"
font-family="Ubuntu" font-size="11" font-weight="400" font-style="normal" 
>
<path vector-effect="non-scaling-stroke" fill-rule="evenodd" d="M0,0 L0,75 C0,77.5 2.5,80 5,80 L10,80 C12.5,80 15,82.5 15,85 L15,160 L15,85 C15,82.5 12.5,80 10,80 L5,80 C2.5,80 0,77.5 0,75 L0,0"/>
</g>
</g>
<g fill="none" stroke="black" stroke-width="1" fill-rule="evenodd" stroke-linecap="square" stroke-linejoin="bevel" >

<g fill="none" stroke="#000000" stroke-opacity="1" stroke-width="1" stroke-linecap="square" stroke-linejoin="bevel" transform="matrix(1,0,0,1,-272,35)"
font-family="Ubuntu" font-size="11" font-weight="400" font-style="normal" 
>
<path vector-effect="non-scaling-stroke" fill-rule="evenodd" d="M0,0 L100.5,0 C103,0 105.5,-2.5 105.5,-5 L105.5,-8 C105.5,-10.5 108,-13 110.5,-13 L211,-13 L110.5,-13 C108,-13 105.5,-10.5 105.5,-8 L105.5,-5 C105.5,-2.5 103,0 100.5,0 L0,0"/>
</g>
</g>
<g fill="none" stroke="black" stroke-width="1" fill-rule="evenodd" stroke-linecap="square" stroke-linejoin="bevel" >

<g fill="none" stroke="#000000" stroke-opacity="1" stroke-width="1" stroke-linecap="square" stroke-linejoin="bevel" transform="matrix(1,0,0,1,-286,-207)"
font-family="Ubuntu" font-size="11" font-weight="400" font-style="normal" 
>
<path vector-effect="non-scaling-stroke" fill-rule="evenodd" d="M0,0 L0,116 C0,118.5 2.5,121 5,121 L9,121 C11.5,121 14,123.5 14,126 L14,242 L14,126 C14,123.5 11.5,121 9,121 L5,121 C2.5,121 0,118.5 0,116 L0,0"/>
</g>
</g>
<g fill="none" stroke="black" stroke-width="1" fill-rule="evenodd" stroke-linecap="square" stroke-linejoin="bevel" >

<g fill="#f0f0d2" fill-opacity="1" stroke="#000000" stroke-opacity="1" stroke-width="1" stroke-linecap="square" stroke-linejoin="bevel" transform="matrix(1,0,0,1,171,-174)"
font-family="Ubuntu" font-size="11" font-weight="400" font-style="normal" 
>
<path vector-effect="non-scaling-stroke" fill-rule="evenodd" d="M-35,-25 L35,-25 L35,25 L-35,25 L-35,-25"/>
</g>

<g fill="#f0f0d2" fill-opacity="1" stroke="#000000" stroke-opacity="1" stroke-width="1" stroke-linecap="square" stroke-linejoin="bevel" transform="matrix(1,0,0,1,171,-174)"
font-family="DejaVu Sans" font-size="11" font-weight="400" font-style="normal" 
>
<text fill="#000000" fill-opacity="1" stroke="none" xml:space="preserve" x="-1.60938" y="3.5" font-family="DejaVu Sans" font-size="11" font-weight="400" font-style="normal" 
 >I</text>
</g>
</g>
<g fill="none" stroke="black" stroke-width="1" fill-rule="evenodd" stroke-linecap="square" stroke-linejoin="bevel" >

<g fill="#f0f0d2" fill-opacity="1" stroke="#000000" stroke-opacity="1" stroke-width="1" stroke-linecap="square" stroke-linejoin="bevel" transform="matrix(1,0,0,1,324,-161)"
font-family="Ubuntu" font-size="11" font-weight="400" font-style="normal" 
>
<path vector-effect="non-scaling-stroke" fill-rule="evenodd" d="M-35,-25 L35,-25 L35,25 L-35,25 L-35,-25"/>
</g>

<g fill="#f0f0d2" fill-opacity="1" stroke="#000000" stroke-opacity="1" stroke-width="1" stroke-linecap="square" stroke-linejoin="bevel" transform="matrix(1,0,0,1,324,-161)"
font-family="DejaVu Sans" font-size="11" font-weight="400" font-style="normal" 
>
<text fill="#000000" fill-opacity="1" stroke="none" xml:space="preserve" x="-4.125" y="3.5" font-family="DejaVu Sans" font-size="11" font-weight="400" font-style="normal" 
 >H</text>
</g>
</g>
<g fill="none" stroke="black" stroke-width="1" fill-rule="evenodd" stroke-linecap="square" stroke-linejoin="bevel" >

<g fill="#f0f0d2" fill-opacity="1" stroke="#000000" stroke-opacity="1" stroke-width="1" stroke-linecap="square" stroke-linejoin="bevel" transform="matrix(1,0,0,1,334,8)"
font-family="Ubuntu" font-size="11" font-weight="400" font-style="normal" 
>
<path vector-effect="non-scaling-stroke" fill-rule="evenodd" d="M-35,-25 L35,-25 L35,25 L-35,25 L-35,-25"/>
</g>

<g fill="#f0f0d2" fill-opacity="1" stroke="#000000" stroke-opacity="1" stroke-width="1" stroke-linecap="square" stroke-linejoin="bevel" transform="matrix(1,0,0,1,334,8)"
font-family="DejaVu Sans" font-size="11" font-weight="400" font-style="normal" 
>
<text fill="#000000" fill-opacity="1" stroke="none" xml:space="preserve" x="-4.25" y="3.5" font-family="DejaVu Sans" font-size="11" font-weight="400" font-style="normal" 
 >G</text>
</g>
</g>
<g fill="none" stroke="black" stroke-width="1" fill-rule="evenodd" stroke-linecap="square" stroke-linejoin="bevel" >

<g fill="#f0f0d2" fill-opacity="1" stroke="#000000" stroke-opacity="1" stroke-width="1" stroke-linecap="square" stroke-linejoin="bevel" transform="matrix(1,0,0,1,180,22)"
font-family="Ubuntu" font-size="11" font-weight="400" font-style="normal" 
>
<path vector-effect="non-scaling-stroke" fill-rule="evenodd" d="M-35,-25 L35,-25 L35,25 L-35,25 L-35,-25"/>
</g>

<g fill="#f0f0d2" fill-opacity="1" stroke="#000000" stroke-opacity="1" stroke-width="1" stroke-linecap="square" stroke-linejoin="bevel" transform="matrix(1,0,0,1,180,22)"
font-family="DejaVu Sans" font-size="11" font-weight="400" font-style="normal" 
>
<text fill="#000000" fill-opacity="1" stroke="none" xml:space="preserve" x="-3.15625" y="3.5" font-family="DejaVu Sans" font-size="11" font-weight="400" font-style="normal" 
 >F</text>
</g>
</g>
<g fill="none" stroke="black" stroke-width="1" fill-rule="evenodd" stroke-linecap="square" stroke-linejoin="bevel" >

<g fill="#f0f0d2" fill-opacity="1" stroke="#000000" stroke-opacity="1" stroke-width="1" stroke-linecap="square" stroke-linejoin="bevel" transform="matrix(1,0,0,1,194,167)"
font-family="Ubuntu" font-size="11" font-weight="400" font-style="normal" 
>
<path vector-effect="non-scaling-stroke" fill-rule="evenodd" d="M-35,-25 L35,-25 L35,25 L-35,25 L-35,-25"/>
</g>

<g fill="#f0f0d2" fill-opacity="1" stroke="#000000" stroke-opacity="1" stroke-width="1" stroke-linecap="square" stroke-linejoin="bevel" transform="matrix(1,0,0,1,194,167)"
font-family="DejaVu Sans" font-size="11" font-weight="400" font-style="normal" 
>
<text fill="#000000" fill-opacity="1" stroke="none" xml:space="preserve" x="-3.46875" y="3.5" font-family="DejaVu Sans" font-size="11" font-weight="400" font-style="normal" 
 >E</text>
</g>
</g>
<g fill="none" stroke="black" stroke-width="1" fill-rule="evenodd" stroke-linecap="square" stroke-linejoin="bevel" >

<g fill="#f0f0d2" fill-opacity="1" stroke="#000000" stroke-opacity="1" stroke-width="1" stroke-linecap="square" stroke-linejoin="bevel" transform="matrix(1,0,0,1,-46,182)"
font-family="Ubuntu" font-size="11" font-weight="400" font-style="normal" 
>
<path vector-effect="non-scaling-stroke" fill-rule="evenodd" d="M-35,-25 L35,-25 L35,25 L-35,25 L-35,-25"/>
</g>

<g fill="#f0f0d2" fill-opacity="1" stroke="#000000" stroke-opacity="1" stroke-width="1" stroke-linecap="square" stroke-linejoin="bevel" transform="matrix(1,0,0,1,-46,182)"
font-family="DejaVu Sans" font-size="11" font-weight="400" font-style="normal" 
>
<text fill="#000000" fill-opacity="1" stroke="none" xml:space="preserve" x="-4.23438" y="3.5" font-family="DejaVu Sans" font-size="11" font-weight="400" font-style="normal" 
 >D</text>
</g>
</g>
<g fill="none" stroke="black" stroke-width="1" fill-rule="evenodd" stroke-linecap="square" stroke-linejoin="bevel" >

<g fill="#f0f0d2" fill-opacity="1" stroke="#000000" stroke-opacity="1" stroke-width="1" stroke-linecap="square" stroke-linejoin="bevel" transform="matrix(1,0,0,1,-61,22)"
font-family="Ubuntu" font-size="11" font-weight="400" font-style="normal" 
>
<path vector-effect="non-scaling-stroke" fill-rule="evenodd" d="M-35,-25 L35,-25 L35,25 L-35,25 L-35,-25"/>
</g>

<g fill="#f0f0d2" fill-opacity="1" stroke="#000000" stroke-opacity="1" stroke-width="1" stroke-linecap="square" stroke-linejoin="bevel" transform="matrix(1,0,0,1,-61,22)"
font-family="DejaVu Sans" font-size="11" font-weight="400" font-style="normal" 
>
<text fill="#000000" fill-opacity="1" stroke="none" xml:space="preserve" x="-3.82812" y="3.5" font-family="DejaVu Sans" font-size="11" font-weight="400" font-style="normal" 
 >C</text>
</g>
</g>
<g fill="none" stroke="black" stroke-width="1" fill-rule="evenodd" stroke-linecap="square" stroke-linejoin="bevel" >

<g fill="#f0f0d2" fill-opacity="1" stroke="#000000" stroke-opacity="1" stroke-width="1" stroke-linecap="square" stroke-linejoin="bevel" transform="matrix(1,0,0,1,-272,35)"
font-family="Ubuntu" font-size="11" font-weight="400" font-style="normal" 
>
<path vector-effect="non-scaling-stroke" fill-rule="evenodd" d="M-35,-25 L35,-25 L35,25 L-35,25 L-35,-25"/>
</g>

<g fill="#f0f0d2" fill-opacity="1" stroke="#000000" stroke-opacity="1" stroke-width="1" stroke-linecap="square" stroke-linejoin="bevel" transform="matrix(1,0,0,1,-272,35)"
font-family="DejaVu Sans" font-size="11" font-weight="400" font-style="normal" 
>
<text fill="#000000" fill-opacity="1" stroke="none" xml:space="preserve" x="-3.76562" y="3.5" font-family="DejaVu Sans" font-size="11" font-weight="400" font-style="normal" 
 >B</text>
</g>
</g>
<g fill="none" stroke="black" stroke-width="1" fill-rule="evenodd" stroke-linecap="square" stroke-linejoin="bevel" >

<g fill="#f0f0d2" fill-opacity="1" stroke="#000000" stroke-opacity="1" stroke-width="1" stroke-linecap="square" stroke-linejoin="bevel" transform="matrix(1,0,0,1,-286,-207)"
font-family="Ubuntu" font-size="11" font-weight="400" font-style="normal" 
>
<path vector-effect="non-scaling-stroke" fill-rule="evenodd" d="M-35,-25 L35,-25 L35,25 L-35,25 L-35,-25"/>
</g>

<g fill="#f0f0d2" fill-opacity="1" stroke="#000000" stroke-opacity="1" stroke-width="1" stroke-linecap="square" stroke-linejoin="bevel" transform="matrix(1,0,0,1,-286,-207)"
font-family="DejaVu Sans" font-size="11" font-weight="400" font-style="normal" 
>
<text fill="#000000" fill-opacity="1" stroke="none" xml:space="preserve" x="-3.75" y="3.5" font-family="DejaVu Sans" font-size="11" font-weight="400" font-style="normal" 
 >A</text>
</g>
</g>
<!-- Dunnart description -->
    <dunnart:options flowSeparation="0.5" automaticGraphLayout="0" routingBuffer="4" rubberBandRouting="0" layoutBeautify="0" colourInterferingConnectors="0" penaliseCrossings="0" layoutMode="0" preventOverlaps="0" defaultIdealConnectorLength="1" segmentPenalty="50" layoutMethod="0" avoidBuffer="0" pageBoundaryConstraints="0"/>
    <dunnart:node width="70" cx="-286" cy="-207" height="50" type="org.dunnart.shapes.rect" id="1" label="A"/>
    <dunnart:node width="70" cx="-272" cy="35" height="50" type="org.dunnart.shapes.rect" id="2" label="B"/>
    <dunnart:node width="70" cx="-61" cy="22" height="50" type="org.dunnart.shapes.rect" id="3" label="C"/>
    <dunnart:node width="70" cx="-46" cy="182" height="50" type="org.dunnart.shapes.rect" id="4" label="D"/>
    <dunnart:node width="70" cx="194" cy="167" height="50" type="org.dunnart.shapes.rect" id="5" label="E"/>
    <dunnart:node width="70" cx="180" cy="22" height="50" type="org.dunnart.shapes.rect" id="6" label="F"/>
    <dunnart:node width="70" cx="334" cy="8" height="50" type="org.dunnart.shapes.rect" id="7" label="G"/>
    <dunnart:node width="70" cx="324" cy="-161" height="50" type="org.dunnart.shapes.rect" id="8" label="H"/>
    <dunnart:node width="70" cx="171" cy="-174" height="50" type="org.dunnart.shapes.rect" id="9" label="I"/>
    <dunnart:node libavoidPath="10 -286 -207 10 8 -286 -178 0 0 -286 -174 0 0 -286 -145 0 0 -286 -132 0 0 -286 -21 0 0 -286 -7 0 0 -286 6 0 0 -272 6 0 0 -272 35 10 8 " dstX="-272" srcX="-286" dstY="35" srcY="-207" path="-286,-207 -286,-86 -272,-86 -272,35 " routingType="orthogonal" srcID="1" type="connector" dstID="2" id="10"/>
    <dunnart:node libavoidPath="5 -272 35 11 8 -233 35 0 0 -100 35 0 0 -100 22 0 0 -61 22 11 8 " dstX="-61" srcX="-272" dstY="22" srcY="35" path="-272,35 -166.5,35 -166.5,22 -61,22 " routingType="orthogonal" srcID="2" type="connector" dstID="3" id="11"/>
    <dunnart:node libavoidPath="7 -61 22 12 8 -61 51 0 0 -61 64 0 0 -61 138 0 0 -61 153 0 0 -46 153 0 0 -46 182 12 8 " dstX="-46" srcX="-61" dstY="182" srcY="22" path="-61,22 -61,102 -46,102 -46,182 " routingType="orthogonal" srcID="3" type="connector" dstID="4" id="12"/>
    <dunnart:node libavoidPath="7 -46 182 13 8 -7 182 0 0 132 182 0 0 141 182 0 0 155 182 0 0 155 167 0 0 194 167 13 8 " dstX="194" srcX="-46" dstY="167" srcY="182" path="-46,182 74,182 74,167 194,167 " routingType="orthogonal" srcID="4" type="connector" dstID="5" id="13"/>
    <dunnart:node libavoidPath="6 194 167 14 8 194 138 0 0 194 64 0 0 194 51 0 0 180 51 0 0 180 22 14 8 " dstX="180" srcX="194" dstY="22" srcY="167" path="194,167 194,94.5 180,94.5 180,22 " routingType="orthogonal" srcID="5" type="connector" dstID="6" id="14"/>
    <dunnart:node libavoidPath="7 180 22 15 8 219 22 0 0 233 22 0 0 285 22 0 0 295 22 0 0 295 8 0 0 334 8 15 8 " dstX="334" srcX="180" dstY="8" srcY="22" path="180,22 257,22 257,8 334,8 " routingType="orthogonal" srcID="6" type="connector" dstID="7" id="15"/>
    <dunnart:node libavoidPath="5 334 8 16 8 334 -21 0 0 334 -132 0 0 324 -132 0 0 324 -161 16 8 " dstX="324" srcX="334" dstY="-161" srcY="8" path="334,8 334,-76.5 324,-76.5 324,-161 " routingType="orthogonal" srcID="7" type="connector" dstID="8" id="16"/>
    <dunnart:node libavoidPath="7 324 -161 17 8 285 -161 0 0 233 -161 0 0 219 -161 0 0 210 -161 0 0 210 -174 0 0 171 -174 17 8 " dstX="171" srcX="324" dstY="-174" srcY="-161" path="324,-161 247.5,-161 247.5,-174 171,-174 " routingType="orthogonal" srcID="8" type="connector" dstID="9" id="17"/>
</svg>
